# xmcd
#
# Track frame offsets: 
#        150
#        22696
#        46281
#        56599
#        70200
#        90389
#        118053
#        137508
#        152941
#        177570
#
# Disc length: 2511 seconds
#
# Revision: 0
# Processed by: cddbd v1.5.1PL0 Copyright (c) Steve Scherf et al.
# Submitted via: ExactAudioCopy v0.95a5
#
DISCID=7f09cd0a
DTITLE=Rick Shaw - Tennessee
DYEAR=2000
DGENRE=Country
TTITLE0=On The Other Side
TTITLE1=Tennessee
TTITLE2=Eclipse
TTITLE3=Fade Away
TTITLE4=Send Her Home
TTITLE5=Won't Let You Down
TTITLE6=Al's Tune
TTITLE7=Leave It Alone
TTITLE8=Close Your Eyes
TTITLE9=Crazy (In Love)
EXTD=
EXTT0=
EXTT1=
EXTT2=
EXTT3=
EXTT4=
EXTT5=
EXTT6=
EXTT7=
EXTT8=
EXTT9=
PLAYORDER=
